<svg xmlns="http://www.w3.org/2000/svg" viewBox="0 0 528.7 300.6"><style>.a{stop-color:#8CC541;}.b{stop-color:#3BB34A;}.c{stop-color:#046938;}</style><style type="text/css">  
	.st0{clip-path:url(#SVGID_2_);fill:url(#SVGID_3_);}
	.st1{clip-path:url(#SVGID_5_);fill:url(#SVGID_6_);}
	.st2{fill:#8CC541;}
	.st3{fill:#059347;}
	.st4{fill-rule:evenodd;clip-rule:evenodd;fill:#8CC541;}
</style><defs><path d="M7.4 44c0 14.2 6.7 25.9 19.2 33.6 7.3 4.6 13.7 6.7 31.9 10.1C79.2 92 84.2 93.2 88.3 95c5.2 2.1 8.3 6.8 8.3 12.3 0 9.8-9.1 14-24.4 14 -10.1 0-18.4-1.2-23.2-6.5 -2.8-3.3-3.2-6.8-4-12.5H3.7c0.2 9.2 1.4 15.4 3.3 19.3 4.2 10 11.5 17.5 21.4 22.4 10.7 5.4 27.4 8.6 44.2 8.6 23.2 0 40.7-5.1 52.2-14.9 9.1-7.9 13.9-19.1 13.9-32.2 0-16.1-7.1-27.9-21.4-35.7 -7.5-4.2-17.1-7.2-32.1-10 -23.4-4.2-23.4-4.2-27.4-5.8 -6.3-2.6-9.3-6.3-9.3-11.2 0-8.1 8.9-13.8 21-13.8 15 0 22.1 4.7 24.5 15.9v0.4h42.1l0-1.1c-0.8-9.2-5.6-19.1-9.9-24.1C115.5 6.8 96.3 0 71.1 0 32 0 7.4 17 7.4 44"/></defs><clipPath><use xlink:href="#SVGID_1_"/></clipPath><linearGradient gradientUnits="userSpaceOnUse" x1="12.2" y1="582" x2="14" y2="582" gradientTransform="matrix(76.1831 0 0 -76.1831 -929.1089 44412.7266)"><stop offset="0" class="a"/><stop offset="0.6748" class="b"/><stop offset="1" class="c"/></linearGradient><rect x="3.7" class="st0" width="135" height="152.6"/><defs><path d="M141.4 76.3c0 42 34.1 76 76 76 17.7 0 34-6 46.9-16.2v16.2h27.4V75.5h-76.8V103h31.4c-7.2 7.8-17.5 12.7-28.9 12.7 -21.7 0-39.3-17.6-39.3-39.4 0-21.7 17.6-39.3 39.3-39.3 12.7 0 24.1 6.1 31.3 15.5h41c-10-30.3-38.6-52.2-72.2-52.2C175.4 0.3 141.4 34.3 141.4 76.3"/></defs><clipPath><use xlink:href="#SVGID_4_"/></clipPath><linearGradient gradientUnits="userSpaceOnUse" x1="13.2" y1="582.2" x2="15" y2="582.2" gradientTransform="matrix(84.8428 0 0 -84.8428 -976.6471 49473.8008)"><stop offset="0" class="a"/><stop offset="0.6748" class="b"/><stop offset="1" class="c"/></linearGradient><rect x="141.4" y="0.3" class="st1" width="150.4" height="152.1"/><polygon class="st2" points="48.5 163.9 58.4 163.9 32.6 228.2 25.8 228.2 0 163.9 10.1 163.9 29.2 211.9 "/><polygon class="st2" points="93.4 173 81.5 173 81.5 218.7 93.4 218.7 93.4 228 60.3 228 60.3 218.7 72.2 218.7 72.2 173 60.3 173 60.3 163.9 93.4 163.9 "/><path class="st2" d="M108.9 195.4h10.8c7.8 0 11.7-5.6 11.7-11.2 0-5.5-3.9-11.1-11.7-11.1h-14.2V228h-9.2v-64.2h23.4c13.9 0 20.9 10.3 20.9 20.5 0 9.1-5.6 17.7-16.6 19.6l20.3 24.1h-12l-23.4-28.2V195.4z"/><polygon class="st2" points="160.7 228.3 160.7 173.1 141.3 173.1 141.3 163.8 189.4 163.8 189.4 173.1 170 173.1 170 228.3 "/><path class="st2" d="M191.9 208.7v-44.9h9.4v45c0 7.1 7.6 10.6 14.4 10.6 6.7 0 14.3-3.6 14.3-10.6v-44.9h9.4v45c0 13-12.7 19.8-23.7 19.8C204.4 228.7 191.9 221.9 191.9 208.7"/><path class="st2" d="M277.5 209.1h-23c-2.5 5.9-5.7 13.6-7.7 18.9h-10l25.8-65.1h6.8l25.8 65.1h-9.9L277.5 209.1zM257.9 200.4h16l-7.9-22.7L257.9 200.4z"/><path class="st3" d="M13.2 244.8c5.6-5.8 13.5-9.5 22.2-9.5 14.7 0 26.3 9.2 29.9 23.7h-9.2c-3.4-9.6-11.3-14.5-20.7-14.5 -6.1 0-11.7 2.7-15.8 6.9 -4 4.2-6.6 9.9-6.6 16.5 0 6.4 2.6 12.1 6.6 16.3 4 4.2 9.6 6.9 15.8 6.9 9.7 0 18-5.6 21.3-15.3h9.1c-3.7 14.6-15.4 24.5-30.4 24.5 -8.7 0-16.6-3.7-22.2-9.5 -5.5-5.9-9.2-14-9.2-22.9C4 258.7 7.7 250.6 13.2 244.8"/><path class="st3" d="M76.5 244.4c5.9-6 14.1-9.7 23.1-9.7 9.1 0 17.3 3.8 23.2 9.7 5.8 6 9.5 14.1 9.5 23.2s-3.8 17.3-9.5 23.2c-6 6.1-14.1 9.7-23.2 9.7 -9 0-17.2-3.7-23.1-9.7 -5.8-6-9.5-14.1-9.5-23.2S70.7 250.3 76.5 244.4M116.2 251c-4.3-4.3-10.3-7-16.6-7 -6.3 0-12.2 2.7-16.4 7 -4.2 4.2-6.9 10.1-6.9 16.6 0 6.5 2.7 12.4 6.9 16.6 4.2 4.3 10.1 7 16.4 7 6.3 0 12.3-2.7 16.6-7 4.1-4.2 6.8-10 6.8-16.6C123 261 120.3 255.2 116.2 251"/><polygon class="st3" points="134.5 299.7 134.5 235.4 141.6 235.5 172.9 280.7 172.9 235.5 182.1 235.5 182.1 299.7 174.8 299.7 143.7 254.8 143.7 299.7 "/><polygon class="st3" points="195.5 299.7 186.2 299.7 186.2 235.6 224.5 235.6 224.5 244.8 195.5 244.8 195.5 262.9 221.2 262.9 221.2 272.3 195.5 272.3 "/><polygon class="st3" points="236.8 290.5 266.6 290.5 266.6 299.7 227.5 299.7 227.5 235.6 266.6 235.6 266.6 244.8 236.8 244.8 236.8 262.9 265.9 262.9 265.9 272.3 236.8 272.3 "/><path class="st3" d="M283.4 267.1h10.8c7.8 0 11.7-5.6 11.7-11.2 0-5.5-3.9-11.1-11.7-11.1H280v54.9h-9.2v-64.2h23.4c14 0 20.9 10.3 20.9 20.5 0 9.1-5.6 17.7-16.6 19.6l20.3 24.1h-12l-23.4-28.2V267.1z"/><polygon class="st3" points="329.1 290.5 358.9 290.5 358.9 299.7 319.7 299.7 319.7 235.6 358.8 235.6 358.8 244.8 329.1 244.8 329.1 262.9 358.2 262.9 358.2 272.3 329.1 272.3 "/><polygon class="st3" points="363 299.7 363 235.4 370.2 235.5 401.5 280.7 401.5 235.5 410.7 235.5 410.7 299.7 403.3 299.7 372.3 254.8 372.3 299.7 "/><path class="st3" d="M423.1 244.8c5.6-5.8 13.5-9.5 22.2-9.5 14.7 0 26.3 9.2 29.9 23.7h-9.2c-3.4-9.6-11.3-14.5-20.7-14.5 -6.1 0-11.8 2.7-15.8 6.9 -4 4.2-6.6 9.9-6.6 16.5 0 6.4 2.6 12.1 6.6 16.3s9.6 6.9 15.8 6.9c9.7 0 18-5.6 21.3-15.3h9.1c-3.7 14.6-15.4 24.5-30.4 24.5 -8.7 0-16.6-3.7-22.2-9.5 -5.5-5.9-9.2-14-9.2-22.9C414 258.7 417.6 250.6 423.1 244.8"/><polygon class="st3" points="487.5 290.5 517.3 290.5 517.3 299.7 478.1 299.7 478.1 235.6 517.2 235.6 517.2 244.8 487.5 244.8 487.5 262.9 516.6 262.9 516.6 272.3 487.5 272.3 "/><path class="st4" d="M409.4 0.3c53.1 0 96.8 43.2 96.8 96.7 0 53.1-43.6 96.3-96.8 96.3 -53.1 0-96.3-43.2-96.3-96.3C313.1 43.5 356.3 0.3 409.4 0.3M391.4 19.6c0.9-4.1 2.2-8.1 3.6-12.1 -4.1 0.9-8.1 1.8-12.2 2.7 0 3.2 0 6.8-2.2 7.2 -4.1 0.9-6.3 4.1-2.3 6.7 4.5 2.3 6.3-6.3 11.3-5C390 19.6 390.5 19.6 391.4 19.6M466.5 43.5c-1.8 1.8 1.4 3.6 3.1 4.5 1.8 1.3 4.1-0.5 4.5-2.7 0-1.8-1.4-4-3.2-4C469.2 40.8 466.5 43.5 466.5 43.5M476.4 35.8c-5 1.8-9.4 3.6-14 5.4 7.7 13.1 14 30.6 15.3 46.4 5-2.2 12.6-5 20.2-9C494.9 62.4 487.2 47.5 476.4 35.8M438.2 97c12.6-1.3 25.7-4.5 37.3-9 -1.3-15.8-7.2-32.9-15.3-46.3 -5.9 1.8-11.3 3.6-17.1 4.9 0.9 0.9 2.2 1.4 2.7 1.4 3.6 0 5.4 4.1-0.5 5.4 -3.1 0.9-7.6 2.2-10.8 4.9C436.4 70.9 437.7 84 438.2 97M471 131.7c4.5-14 5.8-27 4.5-41.4 -10.4 3.6-21.6 6.3-32.4 8.1 1.3 0.9 4.5 3.6 0 5.9 -2.2 1.4-3.6 1.8-5 2.2 -0.5 3.6-0.5 7.7-0.5 11.3 0.9 0 1.8 0.5 2.7 0.5 9.5 1.8 10.4 0.5 14.9 3.1 4.1 3.2 4.5 9.9 14.4 9.9C470.1 131.2 470.6 131.2 471 131.7M498.5 80.4c-6.8 3.6-13.5 6.8-20.7 9 0.9 14.8 0 28.3-5 42.3 2.3 0 4.1 0.4 5 0.9 5.4-1.8 11.7-4.5 17.6-7.6 3.1-9 4.5-18.5 4.5-27.9C499.8 91.2 499.4 85.8 498.5 80.4M494.9 127.2c-5 2.7-9.9 5-15.3 6.7 0.9 1.3 0.4 3.1-1.8 5.8 -4.5 5-0.5 8.6-6.3 14.4 -5.8 5.9-11.2 7.2-12.2 18C475.5 161.4 488.1 145.6 494.9 127.2M431 159.1c-1.8 6.3-4.1 12.1-6.3 18.4 3.6 4.5 2.2 0 6.8-2.7 4.5-3.1 9-9 3.6-13C433.7 160.9 432.3 160 431 159.1M417.5 187c0-1.3 0.5-2.3 0.5-4.1 0.5-4.5 1.8-11.7 5.4-7.2 2.2-5.9 4.5-11.7 5.9-18 -3.1-2.3-5.4-4.5-5.4-7.7 0-1.3-0.5-2.2-1.4-3.1 -12.1 0.9-24.3 0.9-37.3 0 1.8 9.4 4.5 19.3 8.1 28.8 0.5-0.9 0.9-1.8 1.4-2.7 1.3-2.3 4.9 0.5 6.3 3.6 0.9 2.7 1.8 6.7 2.7 10.4H417.5zM395.4 186.1c-5.4-12.6-9.9-25.2-12.6-39.1 -10.8-0.9-21.6-2.7-32.4-5 5.9 12.6 16.2 23.9 27.5 32.8h4.1c0.9 0.5 2.7 2.7 4.1 5.9 2.7 1.8 5.4 3.6 8.1 5C394.5 186.1 395 186.1 395.4 186.1M368.4 169.5c-8.6-8.6-15.8-17.5-20.7-27.9 -5.8-1.8-12.6-3.1-19.3-4.9 6.8 13.9 17.5 26.1 30.6 35.1C361.7 169.5 365.3 167.7 368.4 169.5M327 133.9c6.3 1.8 13 3.6 19.8 5 -6.8-13.5-9-30.6-8.1-45.5 -6.3-1.8-13-3.6-19.3-5.4 0 2.7-0.5 5.9-0.5 9C318.9 110.1 322.1 122.7 327 133.9M374.3 99.7c-11.3-1.4-22.5-3.6-33.8-5.9 -0.9 15.3 2.3 31.9 9 45.9 10.8 2.3 22 4.1 33.3 5 -2.7-12.2-3.6-24.7-4-37.3h-0.5C378.3 104.2 376.5 102 374.3 99.7M381 110.1c0 11.7 1.3 23.4 3.6 35.1 12.1 0.9 23.9 0.9 36 0 -1.4-1.3-1.4-2.7 1.8-5.4 5.9-6.3 5.9-7.2 0-8.6 -6.3-1.8-11.7-15.7-20.7-15.7C394.1 115.5 385.5 113.7 381 110.1M365.3 48.4c-3.6-0.9-7.2-1.4-11.3-2.2 -7.6 13.9-11.7 29.2-13 45.4 9.9 2.3 20.2 4.5 30.6 5.9 -3.6-3.6-7.6-7.2-7.2-14 0.5-13-7.7-13-3.6-22C363.9 55.2 365.3 50.7 365.3 48.4M319.8 85.8c6.3 1.8 12.6 4.1 19.3 5.4 0.9-16.2 5.4-31.5 12.6-45.4 -4.5-1.4-9.5-2.3-14-4.1C328.4 54.3 321.6 69.6 319.8 85.8M339.2 39.9c7.2 2.2 12.6 3.6 14 4 1.3-3.1 3.1-5.8 4.9-8.5 -1.8-0.9-2.7-2.2-2.7-3.6 0-1.8-0.9-3.6-2.2-5.4C348.2 30.4 343.2 34.9 339.2 39.9M360.3 35.4c-1.8 2.7-3.6 5.9-5.4 9 3.6 0.5 6.8 1.4 10.4 1.8 0-1.3 0-10.8-4.1-10.8H360.3zM394.5 178.5c0.9 2.7 2.3 5.4 3.2 8.1 0.9 0 2.2 0 3.1 0.5 -0.9-3.2-2.7-7.2-5.4-7.7C395 178.9 394.5 178.9 394.5 178.5M435.5 118.2c0.4-4.1 0.4-8.1 0.4-11.7 -1.4-0.4-2.7-0.4-4.9-1.3 -6.3-1.3-13.1-4.5-16.2-1.3 -3.6 3.6-5.4 8.1-0.9 8.1 4 0 4.5-0.5 4 4.5 -0.5 4.5 3.6 7.7 6.8 7.7C426.9 124 429.6 118.6 435.5 118.2M406.2 101.5c-4.1 0-8.1 0-12.2-0.4 0 1.4 0.5 2.2 0.5 4 0.4 4.5 7.6 5 8.5 0.9C403.5 104.2 404.4 102.9 406.2 101.5M435.9 96.6c0-11.7-1.3-24.3-3.2-36.5 -0.9 1.4-1.3 3.1-0.9 5 0.9 7.2-2.7 8.6-5.4 11.2 -2.3 2.7-9 7.7-5 12.6 4.5 5.4-3.2 5.4-5 2.7 -1.8-2.7-3.6-4.5-7.6-4.1 -4.1 0.4-19.3 1.4-17.1 7.6 0.9 1.8 0.9 3.2 1.4 4.1 5.8 0.5 11.2 0.5 16.6 0.5 1.8-0.9 3.1-0.9 4.9-0.9h7.2c3.6 0 7.2-0.5 10.8-0.9v-0.5C433.2 97 434.6 96.6 435.9 96.6M421.5 7c0.9 2.7 1.8 5 2.7 7.2 1.8 3.6 4.5 1.8 8.5 2.7 4.1 0.9 2.7 3.1 5 7.2 1.8 3.6 5 9.9 2.7 9.9 -2.7 0-11.3-7.6-11.3-7.6s-0.9 0.4-1.4 1.3c0.5 1.8 1.4 3.6 1.4 5.4 2.7 2.7 7.7 8.1 11.7 11.7 6.3-1.4 12.2-2.7 18.4-5 -3.1-5-6.7-9.9-10.3-14.4 -2.7 0-4.5-1.8-4.1-3.6 0-0.5 0-0.9-0.5-1.4 -0.5-0.5-0.5-0.5-0.9-0.9 -1.4-0.9-3.1-2.3-5.4-4.1 -1.8-1.4-3.6-4.1-4.5-5.9h-0.5C429.2 8.4 425.6 7.9 421.5 7M451.2 25c3.6 4.5 6.8 9.4 9.9 14.4 4.5-1.4 9-3.1 13.5-5.4 -7.7-7.6-17.1-14.4-27.5-19.3 0.9 2.2 2.3 4.1 4.1 5.9C453 22.8 453 24.6 451.2 25M401.7 34.5c-0.4 2.7 0 5 4 5 4.5-0.5 6.3 1.3 9.5 3.6 2.7 1.8 4.5-2.7 2.7-5 -1.8-1.8-1.3-4.1-2.2-9.9 -0.9-5.8-4.1-3.6-5.4 1.4C409.4 34 401.7 34.5 401.7 34.5M409.4 6.6c-4 0-8.1 0-12.1 0.5 -1.4 4.1-2.3 7.7-3.6 11.7 2.3-1.3 4.1-5 4.1-7.6 0-3.6 5.4-0.9 8.5 1.8 2.7 3.1 5 0 8.5-2.2 1.8-0.9 3.6-1.4 5.4-0.9 0-0.9-0.4-1.8-0.9-2.7C416.1 6.6 413 6.6 409.4 6.6"/><path class="st2" d="M485.4 228.3c-1.7 0-3.5-0.1-5.3-0.2 -1.2-0.1-2.1-0.1-3 0 -2.6 0.2-5.2 0.2-7.7 0.1 -1.3 0-2.6-0.1-3.9-0.1 -4.8 0.1-9.7 0-14.5 0l-3.6 0c-3.4 0-6.8 0-10.2 0 -4.2 0-8.4 0-12.6 0 -4.3 0-8.5 0-12.8 0 -4.1 0-8.2 0-12.3 0 -4.6 0-9.1 0-13.7 0 -3.9 0-7.8 0-11.6 0 -4.6 0-9.3 0-13.9 0 -3.2 0-6.4 0-9.5 0 -6.4 0-12.9 0-19.4 0 -1.8 0-3.6 0-5.3 0 -2.6 0-5.2 0-7.8 0 -0.6 0-1.3 0-1.9 0 -0.9 0-1.9 0-19 0l-0.4-9.3c17.3 0 18.5 0 19.6 0 0.6 0 1.2 0 1.7 0 2.6 0 5.3 0 7.9 0 1.8 0 3.5 0 5.3 0 6.5 0 12.9 0 19.4 0 3.2 0 6.3 0 9.5 0 4.6 0 9.3 0 13.9 0 3.9 0 7.7 0 11.6 0 4.6 0 9.2 0 13.8 0 4.1 0 8.2 0 12.2 0 4.3 0 8.6 0 12.9 0 4.2 0 8.3 0 12.5 0 3.4 0 6.8 0 10.2 0l3.7 0c4.8 0 9.6 0.1 14.4 0 1.4 0 2.8 0 4.3 0.1 2.3 0.1 4.5 0.1 6.6-0.1 1.6-0.2 3.2-0.1 4.5 0 6.3 0.4 11.8 0 16.6-1.3l0.4-0.1c2.5-0.7 5.7-1.5 7.6-2.7 2.7-1.6 6.2-5.4 6.8-8.2 0.2-1 0-1.3-0.1-1.5 -0.6-0.9-5.2-0.8-7-0.8 -2.1 0-4.1 0-5.9-0.3 -6.6-1.3-10.7-6.4-9.7-12.3 0.6-3.5 2.8-6 5-8.2 2.6-2.6 5.4-4.7 8.2-6.8 1.1-0.8 2.1-1.6 3.2-2.4 3.9-3.1 6.9-5.8 9.1-9.1 2.1-3.1 3.4-6.9 4.1-11.6 0.4-2.6 0.3-5.5 0.3-8.4 0-1.1 0-2.3 0-3.4 0-3.4-0.9-5.9-2.6-7.7 -2.2-2.3-5.3-2.6-7-2.6v-9.3c5.3 0 10.1 1.9 13.5 5.3 2.4 2.4 5.3 6.9 5.3 14.3 0 1.1 0 2.1 0 3.2 0.1 3.2 0.1 6.5-0.4 9.9 -0.9 6.2-2.7 11.2-5.6 15.5 -3 4.5-7.1 8.1-11.1 11.2 -1.1 0.9-2.2 1.7-3.3 2.5 -2.6 2-5.1 3.9-7.3 6 -0.7 0.7-2.2 2.2-2.4 3.2 -0.2 1.1 2.3 1.6 2.3 1.6 0.9 0.2 2.5 0.1 4.1 0.1 4.9-0.1 11.7-0.1 15 5.2 1.5 2.5 2 5.5 1.2 8.5 -1.5 6.2-7.4 11.7-11 13.9 -3.1 1.9-7 2.9-10.1 3.7l-0.4 0.1C495.4 227.7 490.6 228.3 485.4 228.3"/><path class="st4" d="M502.5 112.1l-6.8 21.7 15.6 4.6c0 0 4.8 0.4 8.2-9.8 3.4-10.2-1.4-10.8-1.4-10.8L502.5 112.1z"/><polygon class="st2" points="305.1 218.7 335.3 218.7 335.3 228 295.8 228 295.8 163.9 305.1 163.9 "/></svg>